PathFileType	4	(x/y/z)	TRC_MarkerData\Passive\Passive_Pref0011.trc
DataRate	CameraRate	NumFrames	NumMarkers	Units	OrigDataRate	OrigDataStartFrame	OrigNumFrames
240	240	7	50	mm	240	232	309
Frame#	Time	R_AC			L_AC			HEAD			STERN			C7			L_IC			R_IC			L_ASIS			R_ASIS			L_GT			R_GT			L_PSIS			R_PSIS			SACRAL			L_LAT_KNEE			L_MED_KNEE			R_LAT_KNEE			R_MED_KNEE			L_LAT_ANK			L_MED_ANK			R_LAT_ANK			R_MED_ANK			L_THIGH_PROX_POST			L_THIGH_PROX_ANT			L_THIGH_DIST_ANT			L_THIGH_DIST_POST			R_THIGH_PROX_POST			R_THIGH_PROX_ANT			R_THIGH_DIST_ANT			R_THIGH_DIST_POST			L_SHANK_PROX_POST			L_SHANK_PROX_ANT			L_SHANK_DIST_ANT			L_SHANK_DIST_POST			R_SHANK_PROX_POST			R_SHANK_PROX_ANT			R_SHANK_DIST_ANT			R_SHANK_DIST_POST			L_HEEL_LAT			L_HEEL_SUP			L_HEEL_MED			R_HEEL_LAT			R_HEEL_SUP			R_HEEL_MED			L_1ST_MET			L_5TH_MET			L_TOE			R_1ST_MET			R_5TH_MET			R_TOE			
		X1	Y1	Z1	X2	Y2	Z2	X3	Y3	Z3	X4	Y4	Z4	X5	Y5	Z5	X6	Y6	Z6	X7	Y7	Z7	X8	Y8	Z8	X9	Y9	Z9	X10	Y10	Z10	X11	Y11	Z11	X12	Y12	Z12	X13	Y13	Z13	X14	Y14	Z14	X15	Y15	Z15	X16	Y16	Z16	X17	Y17	Z17	X18	Y18	Z18	X19	Y19	Z19	X20	Y20	Z20	X21	Y21	Z21	X22	Y22	Z22	X23	Y23	Z23	X24	Y24	Z24	X25	Y25	Z25	X26	Y26	Z26	X27	Y27	Z27	X28	Y28	Z28	X29	Y29	Z29	X30	Y30	Z30	X31	Y31	Z31	X32	Y32	Z32	X33	Y33	Z33	X34	Y34	Z34	X35	Y35	Z35	X36	Y36	Z36	X37	Y37	Z37	X38	Y38	Z38	X39	Y39	Z39	X40	Y40	Z40	X41	Y41	Z41	X42	Y42	Z42	X43	Y43	Z43	X44	Y44	Z44	X45	Y45	Z45	X46	Y46	Z46	X47	Y47	Z47	X48	Y48	Z48	X49	Y49	Z49	X50	Y50	Z50	

232	0.96563	345.37	1535.4	489.09	291.46	1557.7	87.658	361.35	1869.2	304.74	393.05	1513.8	282.85	259.46	1586.8	295	307.74	1113.7	118.81	330.8	1121.2	454.92	365.86	1056.9	150.57	387.08	1062.8	415.85	280.72	969.03	101.2	310.32	979.44	466.63	177.09	1060.5	240.6	180.08	1059	348.77	169.36	1026.8	293.98	405.87	565.22	88.086	415.53	573.11	226.32	356.25	556.99	410.81	352.99	560.7	278.7	49.302	263.83	109.42	44.026	266.05	198.19	267.86	90.915	334.7	304.54	131.89	243.7	324.78	790.23	95.82	386.75	804.15	94.525	410.01	734.97	96.542	348.78	718.82	92.877	315.13	787.25	456.17	383.58	796.48	456.32	387.33	720.92	443.78	317.45	714.73	439.6	317.97	510.97	107.39	364.43	468.03	113.32	329.8	431.66	121.09	288.54	472.06	105.4	297.92	370.79	406.51	364.09	372.85	391.47	355.91	300.74	373.85	288.09	298.66	387.1	-42.074	241.36	112.49	-36.96	271.58	144.1	-48.416	247.74	178.98	194.66	50.532	303.88	194.62	85.137	273.76	213.39	61.11	241.45	122.75	106.64	219.16	111.01	116.04	108.78	170.33	87.171	189.81	425.49	54.585	246.62	406.07	35.548	355.75	471.57	52.278	288.06
233	0.96981	349.99	1536.4	489.04	296.13	1558.6	87.605	366.25	1870	304.52	397.74	1514.6	282.84	264.16	1587.6	294.94	312.65	1114.6	118.95	335.23	1122.1	455.03	370.82	1057.9	151.02	391.3	1063.4	416.33	286.17	970.13	101.18	313.95	980.11	466.69	181.78	1061.4	240.35	184.48	1059.9	348.51	173.95	1027.7	293.67	414.59	567.17	88.321	423.47	575.2	226.62	357.29	557.44	411.19	354.66	561.08	279.04	62.54	260.45	107.8	56.799	262.5	196.49	268.26	91.18	334.68	304.91	132.39	243.9	331.58	791.5	95.602	393.47	806.09	94.789	417.32	737.04	96.843	356.38	720.4	92.837	317.5	788.02	456.23	385.98	796.75	456.82	389.34	721.18	444.19	319.44	715.48	439.73	327.44	511.61	107.19	374.51	469.37	113.33	340.38	432.49	120.94	298.62	472.26	105.01	298.49	371.39	406.74	364.66	373.3	391.91	356.37	301.21	374.28	288.56	299.29	387.33	-28.495	236.58	110.37	-23.982	266.86	141.99	-35.263	242.83	176.85	194.83	51.24	303.91	194.86	85.9	273.88	213.57	61.941	241.53	137.81	104.38	217.89	126.48	113.6	107.46	185.8	85.633	188.78	425.63	54.62	246.74	406.18	35.488	355.83	471.7	52.114	288.16
234	0.97399	354.59	1537.3	488.99	300.82	1559.5	87.547	371.14	1870.8	304.31	402.42	1515.3	282.84	268.86	1588.4	294.88	317.59	1115.4	119.09	339.59	1122.9	455.13	375.76	1058.9	151.46	395.49	1064	416.8	291.6	971.21	101.16	317.54	980.77	466.74	186.47	1062.2	240.08	188.86	1060.8	348.22	178.54	1028.5	293.33	423.2	569.11	88.628	431.29	577.26	226.98	358.31	557.89	411.56	356.32	561.46	279.36	75.914	256.94	106.22	69.702	258.82	194.83	268.66	91.461	334.65	305.29	132.9	244.1	338.33	792.74	95.415	400.12	807.99	95.083	424.55	739.07	97.198	363.93	721.95	92.84	319.85	788.78	456.28	388.36	797.03	457.31	391.32	721.45	444.59	321.42	716.22	439.84	336.85	512.2	107.06	384.55	470.69	113.42	350.95	433.29	120.86	308.67	472.4	104.7	299.05	372	406.95	365.23	373.75	392.33	356.83	301.69	374.69	289.03	299.92	387.54	-14.744	231.64	108.3	-10.848	261.97	139.92	-21.947	237.75	174.76	195	51.966	303.95	195.11	86.68	274.01	213.75	62.781	241.62	153.04	102.07	216.68	142.14	111.11	106.22	201.44	84.073	187.83	425.78	54.655	246.86	406.29	35.433	355.9	471.84	51.954	288.25
235	0.97817	359.18	1538.2	488.94	305.52	1560.3	87.483	376.02	1871.5	304.09	407.1	1516.1	282.84	273.56	1589.2	294.81	322.56	1116.3	119.23	343.9	1123.7	455.22	380.7	1059.8	151.91	399.67	1064.6	417.27	297.03	972.25	101.14	321.11	981.41	466.77	191.15	1063.1	239.78	193.24	1061.6	347.9	183.1	1029.3	292.96	431.71	571.01	89.006	438.99	579.3	227.41	359.32	558.35	411.9	357.98	561.83	279.67	89.423	253.34	104.69	82.734	255.02	193.23	269.06	91.759	334.63	305.66	133.4	244.29	345.04	793.95	95.262	406.71	809.84	95.405	431.7	741.05	97.608	371.41	723.46	92.89	322.2	789.53	456.32	390.71	797.31	457.78	393.3	721.72	444.96	323.39	716.96	439.95	346.22	512.74	106.98	394.54	471.98	113.57	361.5	434.07	120.85	318.7	472.49	104.44	299.6	372.62	407.14	365.8	374.2	392.75	357.28	302.17	375.09	289.5	300.56	387.75	-0.82076	226.56	106.28	2.4409	256.93	137.9	-8.4644	232.52	172.72	195.17	52.708	303.98	195.39	87.473	274.13	213.93	63.627	241.7	168.45	99.72	215.55	157.98	108.58	105.05	217.26	82.499	186.96	425.91	54.688	246.98	406.4	35.383	355.97	471.97	51.798	288.34
236	0.98235	363.74	1539	488.88	310.24	1561.2	87.412	380.89	1872.2	303.88	411.78	1516.8	282.84	278.26	1589.9	294.72	327.56	1117	119.35	348.15	1124.4	455.29	385.63	1060.7	152.36	403.82	1065.2	417.74	302.44	973.26	101.11	324.66	982.04	466.79	195.82	1063.9	239.45	197.6	1062.5	347.55	187.66	1030.2	292.57	440.11	572.89	89.453	446.56	581.29	227.9	360.33	558.8	412.23	359.64	562.21	279.97	103.07	249.64	103.22	95.897	251.11	191.67	269.45	92.075	334.62	306.02	133.91	244.49	351.69	795.12	95.145	413.23	811.64	95.755	438.76	742.98	98.073	378.83	724.92	92.986	324.54	790.28	456.35	393.05	797.59	458.23	395.26	722	445.32	325.36	717.7	440.03	355.52	513.23	106.96	404.48	473.26	113.79	372.02	434.81	120.91	328.69	472.52	104.25	300.15	373.24	407.33	366.37	374.66	393.15	357.72	302.66	375.47	289.96	301.19	387.94	13.274	221.35	104.3	15.886	251.74	135.93	5.1855	227.14	170.71	195.34	53.463	304.01	195.68	88.276	274.24	214.11	64.476	241.77	184.02	97.336	214.49	174.01	106.02	103.96	233.24	80.923	186.17	426.05	54.72	247.09	406.52	35.338	356.04	472.1	51.646	288.43
237	0.98653	368.3	1539.8	488.82	314.98	1562	87.334	385.76	1872.9	303.67	416.45	1517.5	282.84	282.96	1590.6	294.63	332.59	1117.8	119.47	352.33	1125.2	455.36	390.55	1061.6	152.81	407.96	1065.7	418.2	307.84	974.23	101.09	328.2	982.65	466.8	200.5	1064.7	239.1	201.95	1063.3	347.18	192.2	1030.9	292.16	448.4	574.73	89.966	454.02	583.23	228.46	361.33	559.26	412.54	361.31	562.57	280.26	116.84	245.86	101.81	109.19	247.1	190.17	269.84	92.408	334.61	306.38	134.41	244.68	358.29	796.25	95.065	419.7	813.37	96.134	445.74	744.84	98.59	386.18	726.34	93.129	326.88	791.02	456.36	395.38	797.86	458.65	397.22	722.28	445.65	327.33	718.43	440.1	364.77	513.65	107	414.37	474.51	114.09	382.51	435.53	121.04	338.64	472.5	104.13	300.7	373.85	407.5	366.94	375.12	393.54	358.15	303.15	375.83	290.42	301.83	388.12	27.54	216.03	102.39	29.488	246.43	134.02	19.004	221.64	168.76	195.52	54.228	304.05	195.99	89.087	274.35	214.3	65.326	241.84	199.76	94.932	213.51	190.21	103.45	102.95	249.39	79.355	185.46	426.19	54.751	247.2	406.63	35.296	356.1	472.23	51.496	288.52
238	0.99071	372.84	1540.6	488.76	319.74	1562.7	87.248	390.61	1873.5	303.47	421.13	1518.2	282.84	287.65	1591.3	294.53	337.64	1118.5	119.57	356.44	1125.9	455.42	395.47	1062.4	153.25	412.07	1066.3	418.66	313.23	975.17	101.06	331.73	983.25	466.79	205.17	1065.5	238.73	206.3	1064.1	346.77	196.72	1031.7	291.73	456.58	576.54	90.543	461.35	585.12	229.08	362.33	559.72	412.84	362.97	562.94	280.54	130.74	242	100.46	122.61	243.01	188.73	270.23	92.757	334.61	306.74	134.92	244.87	364.84	797.35	95.026	426.1	815.04	96.54	452.62	746.64	99.16	393.44	727.7	93.319	329.22	791.76	456.35	397.71	798.14	459.05	399.18	722.56	445.96	329.3	719.16	440.15	373.97	514.03	107.11	424.19	475.73	114.44	392.98	436.22	121.24	348.57	472.43	104.07	301.24	374.47	407.65	367.5	375.58	393.92	358.58	303.63	376.18	290.88	302.47	388.29	41.976	210.6	100.53	43.245	241.01	132.17	32.993	216.02	166.87	195.7	55.001	304.08	196.32	89.904	274.46	214.49	66.174	241.9	215.66	92.518	212.6	206.58	100.87	102.01	265.69	77.805	184.84	426.33	54.78	247.3	406.74	35.257	356.16	472.36	51.349	288.6
